<svg version="1.1" xmlns="http://www.w3.org/2000/svg" xmlns:xlink="http://www.w3.org/1999/xlink" xmlns:sketch="http://www.bohemiancoding.com/sketch/ns">
    <g id="Page-1" stroke="none" stroke-width="1" fill="none" fill-rule="evenodd" sketch:type="MSPage">
        <g id="Group" sketch:type="MSLayerGroup" transform="translate(-164.000000, -249.000000)">
            <path d="M93,99 L154,266 L247,45 L93,99 Z" id="Shape" stroke="#F6F2F9" fill="#F6F2F9" sketch:type="MSShapeGroup"></path>
            <path d="M247,45 L154,266 L317,257 L247,45 Z" id="Shape" stroke="#F1DAF5" fill="#F1DAF5" sketch:type="MSShapeGroup"></path>
            <path d="M247,45 L317,257 L466,98 L247,45 Z" id="Shape" stroke="#ECE0EF" fill="#ECE0EF" sketch:type="MSShapeGroup"></path>
            <path d="M466,98 L317,257 L471,258 L466,98 Z" id="Shape" stroke="#E6C2E9" fill="#E6C2E9" sketch:type="MSShapeGroup"></path>
            <path d="M466,98 L471,258 L634,115 L466,98 Z" id="Shape" stroke="#E6CAE7" fill="#E6CAE7" sketch:type="MSShapeGroup"></path>
            <path d="M634,115 L471,258 L631,245 L634,115 Z" id="Shape" stroke="#E2B6E3" fill="#E2B6E3" sketch:type="MSShapeGroup"></path>
            <path d="M1220,29 L1106,192 L1198,260 L1220,29 Z" id="Shape" stroke="#E782B6" fill="#E782B6" sketch:type="MSShapeGroup"></path>
            <path d="M1220,29 L1198,260 L1394,51 L1220,29 Z" id="Shape" stroke="#DA85AC" fill="#DA85AC" sketch:type="MSShapeGroup"></path>
            <path d="M1394,51 L1198,260 L1453,195 L1394,51 Z" id="Shape" stroke="#CF76A4" fill="#CF76A4" sketch:type="MSShapeGroup"></path>
            <path d="M1744,11 L1650,233 L1716,417 L1744,11 Z" id="Shape" stroke="#99627B" fill="#99627B" sketch:type="MSShapeGroup"></path>
            <path d="M154,266 L28,345 L213,346 L154,266 Z" id="Shape" stroke="#F8A6DA" fill="#F8A6DA" sketch:type="MSShapeGroup"></path>
            <path d="M154,266 L213,346 L317,257 L154,266 Z" id="Shape" stroke="#F1AFE2" fill="#F1AFE2" sketch:type="MSShapeGroup"></path>
            <path d="M317,257 L213,346 L397,376 L317,257 Z" id="Shape" stroke="#EE8DCB" fill="#EE8DCB" sketch:type="MSShapeGroup"></path>
            <path d="M317,257 L397,376 L471,258 L317,257 Z" id="Shape" stroke="#E999D7" fill="#E999D7" sketch:type="MSShapeGroup"></path>
            <path d="M471,258 L397,376 L517,408 L471,258 Z" id="Shape" stroke="#E870B8" fill="#E870B8" sketch:type="MSShapeGroup"></path>
            <path d="M471,258 L517,408 L631,245 L471,258 Z" id="Shape" stroke="#E68BCF" fill="#E68BCF" sketch:type="MSShapeGroup"></path>
            <path d="M631,245 L517,408 L655,349 L631,245 Z" id="Shape" stroke="#E570BA" fill="#E570BA" sketch:type="MSShapeGroup"></path>
            <path d="M631,245 L655,349 L759,349 L631,245 Z" id="Shape" stroke="#E778C2" fill="#E778C2" sketch:type="MSShapeGroup"></path>
            <path d="M631,245 L759,349 L745,154 L631,245 Z" id="Shape" stroke="#E198D5" fill="#E198D5" sketch:type="MSShapeGroup"></path>
            <path d="M745,154 L759,349 L969,163 L745,154 Z" id="Shape" stroke="#E899D5" fill="#E899D5" sketch:type="MSShapeGroup"></path>
            <path d="M969,163 L759,349 L1006,313 L969,163 Z" id="Shape" stroke="#EC76C4" fill="#EC76C4" sketch:type="MSShapeGroup"></path>
            <path d="M969,163 L1006,313 L1106,192 L969,163 Z" id="Shape" stroke="#EA7DC1" fill="#EA7DC1" sketch:type="MSShapeGroup"></path>
            <path d="M1106,192 L1006,313 L1198,260 L1106,192 Z" id="Shape" stroke="#E864B2" fill="#E864B2" sketch:type="MSShapeGroup"></path>
            <path d="M1198,260 L1006,313 L1075,413 L1198,260 Z" id="Shape" stroke="#EE3A98" fill="#EE3A98" sketch:type="MSShapeGroup"></path>
            <path d="M1198,260 L1075,413 L1232,396 L1198,260 Z" id="Shape" stroke="#E81E7F" fill="#E81E7F" sketch:type="MSShapeGroup"></path>
            <path d="M1198,260 L1232,396 L1442,383 L1198,260 Z" id="Shape" stroke="#D71F78" fill="#D71F78" sketch:type="MSShapeGroup"></path>
            <path d="M1198,260 L1442,383 L1453,195 L1198,260 Z" id="Shape" stroke="#CA4891" fill="#CA4891" sketch:type="MSShapeGroup"></path>
            <path d="M1453,195 L1442,383 L1494,392 L1453,195 Z" id="Shape" stroke="#BF2C74" fill="#BF2C74" sketch:type="MSShapeGroup"></path>
            <path d="M1453,195 L1494,392 L1650,233 L1453,195 Z" id="Shape" stroke="#B24A81" fill="#B24A81" sketch:type="MSShapeGroup"></path>
            <path d="M1650,233 L1494,392 L1716,417 L1650,233 Z" id="Shape" stroke="#A91A55" fill="#A91A55" sketch:type="MSShapeGroup"></path>
            <path d="M28,345 L88,538 L177,510 L28,345 Z" id="Shape" stroke="#B47B89" fill="#B47B89" sketch:type="MSShapeGroup"></path>
            <path d="M28,345 L177,510 L213,346 L28,345 Z" id="Shape" stroke="#DC7AAA" fill="#DC7AAA" sketch:type="MSShapeGroup"></path>
            <path d="M213,346 L177,510 L338,523 L213,346 Z" id="Shape" stroke="#AF6B83" fill="#AF6B83" sketch:type="MSShapeGroup"></path>
            <path d="M213,346 L338,523 L397,376 L213,346 Z" id="Shape" stroke="#C76398" fill="#C76398" sketch:type="MSShapeGroup"></path>
            <path d="M397,376 L338,523 L495,502 L397,376 Z" id="Shape" stroke="#A15A77" fill="#A15A77" sketch:type="MSShapeGroup"></path>
            <path d="M397,376 L495,502 L517,408 L397,376 Z" id="Shape" stroke="#B9568A" fill="#B9568A" sketch:type="MSShapeGroup"></path>
            <path d="M517,408 L495,502 L634,553 L517,408 Z" id="Shape" stroke="#905067" fill="#905067" sketch:type="MSShapeGroup"></path>
            <path d="M517,408 L634,553 L655,349 L517,408 Z" id="Shape" stroke="#B14C80" fill="#B14C80" sketch:type="MSShapeGroup"></path>
            <path d="M655,349 L634,553 L759,349 L655,349 Z" id="Shape" stroke="#C04588" fill="#C04588" sketch:type="MSShapeGroup"></path>
            <path d="M759,349 L634,553 L822,515 L759,349 Z" id="Shape" stroke="#9E4066" fill="#9E4066" sketch:type="MSShapeGroup"></path>
            <path d="M759,349 L822,515 L916,461 L759,349 Z" id="Shape" stroke="#B63773" fill="#B63773" sketch:type="MSShapeGroup"></path>
            <path d="M759,349 L916,461 L1006,313 L759,349 Z" id="Shape" stroke="#E43D94" fill="#E43D94" sketch:type="MSShapeGroup"></path>
            <path d="M1006,313 L916,461 L1075,413 L1006,313 Z" id="Shape" stroke="#D6267C" fill="#D6267C" sketch:type="MSShapeGroup"></path>
            <path d="M1075,413 L916,461 L1093,480 L1075,413 Z" id="Shape" stroke="#B11C5A" fill="#B11C5A" sketch:type="MSShapeGroup"></path>
            <path d="M1075,413 L1093,480 L1232,396 L1075,413 Z" id="Shape" stroke="#BD0E5A" fill="#BD0E5A" sketch:type="MSShapeGroup"></path>
            <path d="M1232,396 L1093,480 L1237,547 L1232,396 Z" id="Shape" stroke="#980B3C" fill="#980B3C" sketch:type="MSShapeGroup"></path>
            <path d="M1232,396 L1237,547 L1396,527 L1232,396 Z" id="Shape" stroke="#80052B" fill="#80052B" sketch:type="MSShapeGroup"></path>
            <path d="M1232,396 L1396,527 L1442,383 L1232,396 Z" id="Shape" stroke="#9B013F" fill="#9B013F" sketch:type="MSShapeGroup"></path>
            <path d="M1442,383 L1396,527 L1494,392 L1442,383 Z" id="Shape" stroke="#8F0037" fill="#8F0037" sketch:type="MSShapeGroup"></path>
            <path d="M1494,392 L1396,527 L1505,535 L1494,392 Z" id="Shape" stroke="#6B0019" fill="#6B0019" sketch:type="MSShapeGroup"></path>
            <path d="M1494,392 L1505,535 L1706,473 L1494,392 Z" id="Shape" stroke="#690018" fill="#690018" sketch:type="MSShapeGroup"></path>
            <path d="M1494,392 L1706,473 L1716,417 L1494,392 Z" id="Shape" stroke="#790026" fill="#790026" sketch:type="MSShapeGroup"></path>
            <path d="M88,538 L0,669 L259,673 L88,538 Z" id="Shape" stroke="#7A797C" fill="#7A797C" sketch:type="MSShapeGroup"></path>
            <path d="M88,538 L259,673 L177,510 L88,538 Z" id="Shape" stroke="#767279" fill="#767279" sketch:type="MSShapeGroup"></path>
            <path d="M177,510 L259,673 L338,523 L177,510 Z" id="Shape" stroke="#716A74" fill="#716A74" sketch:type="MSShapeGroup"></path>
            <path d="M338,523 L259,673 L341,635 L338,523 Z" id="Shape" stroke="#6E6471" fill="#6E6471" sketch:type="MSShapeGroup"></path>
            <path d="M338,523 L341,635 L449,618 L338,523 Z" id="Shape" stroke="#6A5D6D" fill="#6A5D6D" sketch:type="MSShapeGroup"></path>
            <path d="M338,523 L449,618 L495,502 L338,523 Z" id="Shape" stroke="#6C596B" fill="#6C596B" sketch:type="MSShapeGroup"></path>
            <path d="M495,502 L449,618 L634,553 L495,502 Z" id="Shape" stroke="#675268" fill="#675268" sketch:type="MSShapeGroup"></path>
            <path d="M634,553 L861,616 L822,515 L634,553 Z" id="Shape" stroke="#6B3C5D" fill="#6B3C5D" sketch:type="MSShapeGroup"></path>
            <path d="M822,515 L861,616 L901,599 L822,515 Z" id="Shape" stroke="#6F3459" fill="#6F3459" sketch:type="MSShapeGroup"></path>
            <path d="M822,515 L901,599 L916,461 L822,515 Z" id="Shape" stroke="#813258" fill="#813258" sketch:type="MSShapeGroup"></path>
            <path d="M916,461 L901,599 L1093,480 L916,461 Z" id="Shape" stroke="#88254D" fill="#88254D" sketch:type="MSShapeGroup"></path>
            <path d="M1093,480 L901,599 L1065,674 L1093,480 Z" id="Shape" stroke="#6F1E48" fill="#6F1E48" sketch:type="MSShapeGroup"></path>
            <path d="M1093,480 L1065,674 L1237,547 L1093,480 Z" id="Shape" stroke="#6E0E3B" fill="#6E0E3B" sketch:type="MSShapeGroup"></path>
            <path d="M1237,547 L1065,674 L1276,690 L1237,547 Z" id="Shape" stroke="#650A35" fill="#650A35" sketch:type="MSShapeGroup"></path>
            <path d="M1237,547 L1276,690 L1396,527 L1237,547 Z" id="Shape" stroke="#560429" fill="#560429" sketch:type="MSShapeGroup"></path>
            <path d="M1396,527 L1276,690 L1443,659 L1396,527 Z" id="Shape" stroke="#4C0022" fill="#4C0022" sketch:type="MSShapeGroup"></path>
            <path d="M1396,527 L1443,659 L1505,535 L1396,527 Z" id="Shape" stroke="#42001A" fill="#42001A" sketch:type="MSShapeGroup"></path>
            <path d="M1505,535 L1443,659 L1507,709 L1505,535 Z" id="Shape" stroke="#3D0016" fill="#3D0016" sketch:type="MSShapeGroup"></path>
            <path d="M1505,535 L1507,709 L1646,700 L1505,535 Z" id="Shape" stroke="#33000F" fill="#33000F" sketch:type="MSShapeGroup"></path>
            <path d="M1505,535 L1646,700 L1706,473 L1505,535 Z" id="Shape" stroke="#2A0008" fill="#2A0008" sketch:type="MSShapeGroup"></path>
        </g>
    </g>
</svg>