<svg version="1.1" xmlns="http://www.w3.org/2000/svg" xmlns:xlink="http://www.w3.org/1999/xlink" xmlns:sketch="http://www.bohemiancoding.com/sketch/ns">
    <g id="Page-1" stroke="none" stroke-width="1" fill="none" fill-rule="evenodd" sketch:type="MSPage">
        <g id="Group" sketch:type="MSLayerGroup" transform="translate(-243.000000, -205.000000)">
            <path d="M493,106 L364,163 L473,239 L493,106 Z" id="Shape" stroke="#DAECF7" fill="#DAECF7" sketch:type="MSShapeGroup"></path>
            <path d="M493,106 L473,239 L626,177 L493,106 Z" id="Shape" stroke="#D3EAF5" fill="#D3EAF5" sketch:type="MSShapeGroup"></path>
            <path d="M850,93 L753,205 L885,237 L850,93 Z" id="Shape" stroke="#BDDFEE" fill="#BDDFEE" sketch:type="MSShapeGroup"></path>
            <path d="M850,93 L885,237 L975,94 L850,93 Z" id="Shape" stroke="#BCDCED" fill="#BCDCED" sketch:type="MSShapeGroup"></path>
            <path d="M975,94 L885,237 L1064,246 L975,94 Z" id="Shape" stroke="#ACD8EB" fill="#ACD8EB" sketch:type="MSShapeGroup"></path>
            <path d="M975,94 L1064,246 L1132,0 L975,94 Z" id="Shape" stroke="#B1D3E9" fill="#B1D3E9" sketch:type="MSShapeGroup"></path>
            <path d="M1132,0 L1064,246 L1288,55 L1132,0 Z" id="Shape" stroke="#A7CCE4" fill="#A7CCE4" sketch:type="MSShapeGroup"></path>
            <path d="M1288,55 L1064,246 L1266,261 L1288,55 Z" id="Shape" stroke="#99C8E3" fill="#99C8E3" sketch:type="MSShapeGroup"></path>
            <path d="M1288,55 L1266,261 L1402,184 L1288,55 Z" id="Shape" stroke="#92C0DE" fill="#92C0DE" sketch:type="MSShapeGroup"></path>
            <path d="M1554,14 L1402,184 L1581,238 L1554,14 Z" id="Shape" stroke="#88B0D3" fill="#88B0D3" sketch:type="MSShapeGroup"></path>
            <path d="M1554,14 L1581,238 L1635,61 L1554,14 Z" id="Shape" stroke="#85AACF" fill="#85AACF" sketch:type="MSShapeGroup"></path>
            <path d="M1635,61 L1581,238 L1652,197 L1635,61 Z" id="Shape" stroke="#7DA7CD" fill="#7DA7CD" sketch:type="MSShapeGroup"></path>
            <path d="M1635,61 L1652,197 L1830,234 L1635,61 Z" id="Shape" stroke="#7AA0C8" fill="#7AA0C8" sketch:type="MSShapeGroup"></path>
            <path d="M1635,61 L1830,234 L1891,38 L1635,61 Z" id="Shape" stroke="#809AC4" fill="#809AC4" sketch:type="MSShapeGroup"></path>
            <path d="M149,199 L32,333 L248,301 L149,199 Z" id="Shape" stroke="#C1E7FF" fill="#C1E7FF" sketch:type="MSShapeGroup"></path>
            <path d="M149,199 L248,301 L364,163 L149,199 Z" id="Shape" stroke="#D6EFFC" fill="#D6EFFC" sketch:type="MSShapeGroup"></path>
            <path d="M364,163 L248,301 L438,299 L364,163 Z" id="Shape" stroke="#BFE5F9" fill="#BFE5F9" sketch:type="MSShapeGroup"></path>
            <path d="M364,163 L438,299 L473,239 L364,163 Z" id="Shape" stroke="#C5E7F7" fill="#C5E7F7" sketch:type="MSShapeGroup"></path>
            <path d="M473,239 L438,299 L669,340 L473,239 Z" id="Shape" stroke="#9ED4F5" fill="#9ED4F5" sketch:type="MSShapeGroup"></path>
            <path d="M473,239 L669,340 L626,177 L473,239 Z" id="Shape" stroke="#B0DEF3" fill="#B0DEF3" sketch:type="MSShapeGroup"></path>
            <path d="M626,177 L669,340 L753,205 L626,177 Z" id="Shape" stroke="#B0DFF1" fill="#B0DFF1" sketch:type="MSShapeGroup"></path>
            <path d="M753,205 L669,340 L778,409 L753,205 Z" id="Shape" stroke="#81C3EB" fill="#81C3EB" sketch:type="MSShapeGroup"></path>
            <path d="M753,205 L778,409 L885,237 L753,205 Z" id="Shape" stroke="#8FCDEF" fill="#8FCDEF" sketch:type="MSShapeGroup"></path>
            <path d="M885,237 L778,409 L927,312 L885,237 Z" id="Shape" stroke="#75BCE8" fill="#75BCE8" sketch:type="MSShapeGroup"></path>
            <path d="M885,237 L927,312 L1064,246 L885,237 Z" id="Shape" stroke="#8CCBEC" fill="#8CCBEC" sketch:type="MSShapeGroup"></path>
            <path d="M1064,246 L927,312 L1130,404 L1064,246 Z" id="Shape" stroke="#65B2E3" fill="#65B2E3" sketch:type="MSShapeGroup"></path>
            <path d="M1064,246 L1130,404 L1252,354 L1064,246 Z" id="Shape" stroke="#51A4DB" fill="#51A4DB" sketch:type="MSShapeGroup"></path>
            <path d="M1064,246 L1252,354 L1266,261 L1064,246 Z" id="Shape" stroke="#6AB5E3" fill="#6AB5E3" sketch:type="MSShapeGroup"></path>
            <path d="M1266,261 L1252,354 L1357,323 L1266,261 Z" id="Shape" stroke="#51A3DB" fill="#51A3DB" sketch:type="MSShapeGroup"></path>
            <path d="M1266,261 L1357,323 L1402,184 L1266,261 Z" id="Shape" stroke="#6DB3DC" fill="#6DB3DC" sketch:type="MSShapeGroup"></path>
            <path d="M1402,184 L1357,323 L1581,238 L1402,184 Z" id="Shape" stroke="#6AADD7" fill="#6AADD7" sketch:type="MSShapeGroup"></path>
            <path d="M1581,238 L1357,323 L1598,338 L1581,238 Z" id="Shape" stroke="#4A97D2" fill="#4A97D2" sketch:type="MSShapeGroup"></path>
            <path d="M1581,238 L1598,338 L1652,197 L1581,238 Z" id="Shape" stroke="#5A9CCE" fill="#5A9CCE" sketch:type="MSShapeGroup"></path>
            <path d="M1652,197 L1598,338 L1741,367 L1652,197 Z" id="Shape" stroke="#3E8BCA" fill="#3E8BCA" sketch:type="MSShapeGroup"></path>
            <path d="M1652,197 L1741,367 L1830,234 L1652,197 Z" id="Shape" stroke="#528FC6" fill="#528FC6" sketch:type="MSShapeGroup"></path>
            <path d="M1830,234 L1741,367 L1823,348 L1830,234 Z" id="Shape" stroke="#3578BE" fill="#3578BE" sketch:type="MSShapeGroup"></path>
            <path d="M32,333 L198,496 L248,301 L32,333 Z" id="Shape" stroke="#8DBAE7" fill="#8DBAE7" sketch:type="MSShapeGroup"></path>
            <path d="M248,301 L198,496 L310,364 L248,301 Z" id="Shape" stroke="#85B0E1" fill="#85B0E1" sketch:type="MSShapeGroup"></path>
            <path d="M248,301 L310,364 L438,299 L248,301 Z" id="Shape" stroke="#9ACEF3" fill="#9ACEF3" sketch:type="MSShapeGroup"></path>
            <path d="M310,364 L198,496 L378,550 L310,364 Z" id="Shape" stroke="#7083C3" fill="#7083C3" sketch:type="MSShapeGroup"></path>
            <path d="M310,364 L378,550 L445,544 L310,364 Z" id="Shape" stroke="#6877BB" fill="#6877BB" sketch:type="MSShapeGroup"></path>
            <path d="M310,364 L445,544 L438,299 L310,364 Z" id="Shape" stroke="#77A2D8" fill="#77A2D8" sketch:type="MSShapeGroup"></path>
            <path d="M438,299 L445,544 L617,462 L438,299 Z" id="Shape" stroke="#6A8ECA" fill="#6A8ECA" sketch:type="MSShapeGroup"></path>
            <path d="M438,299 L617,462 L669,340 L438,299 Z" id="Shape" stroke="#73B0E0" fill="#73B0E0" sketch:type="MSShapeGroup"></path>
            <path d="M669,340 L617,462 L778,409 L669,340 Z" id="Shape" stroke="#6499D1" fill="#6499D1" sketch:type="MSShapeGroup"></path>
            <path d="M778,409 L617,462 L797,523 L778,409 Z" id="Shape" stroke="#5477BA" fill="#5477BA" sketch:type="MSShapeGroup"></path>
            <path d="M778,409 L797,523 L898,523 L778,409 Z" id="Shape" stroke="#4868B2" fill="#4868B2" sketch:type="MSShapeGroup"></path>
            <path d="M778,409 L898,523 L927,312 L778,409 Z" id="Shape" stroke="#528BC9" fill="#528BC9" sketch:type="MSShapeGroup"></path>
            <path d="M927,312 L898,523 L1052,500 L927,312 Z" id="Shape" stroke="#4577BD" fill="#4577BD" sketch:type="MSShapeGroup"></path>
            <path d="M927,312 L1052,500 L1130,404 L927,312 Z" id="Shape" stroke="#4688C9" fill="#4688C9" sketch:type="MSShapeGroup"></path>
            <path d="M1130,404 L1052,500 L1200,625 L1130,404 Z" id="Shape" stroke="#2A4FA0" fill="#2A4FA0" sketch:type="MSShapeGroup"></path>
            <path d="M1130,404 L1200,625 L1295,456 L1130,404 Z" id="Shape" stroke="#224CA2" fill="#224CA2" sketch:type="MSShapeGroup"></path>
            <path d="M1130,404 L1295,456 L1252,354 L1130,404 Z" id="Shape" stroke="#337AC1" fill="#337AC1" sketch:type="MSShapeGroup"></path>
            <path d="M1252,354 L1295,456 L1357,323 L1252,354 Z" id="Shape" stroke="#3183C8" fill="#3183C8" sketch:type="MSShapeGroup"></path>
            <path d="M1357,323 L1295,456 L1415,540 L1357,323 Z" id="Shape" stroke="#215EAF" fill="#215EAF" sketch:type="MSShapeGroup"></path>
            <path d="M1357,323 L1415,540 L1505,529 L1357,323 Z" id="Shape" stroke="#174BA2" fill="#174BA2" sketch:type="MSShapeGroup"></path>
            <path d="M1357,323 L1505,529 L1598,338 L1357,323 Z" id="Shape" stroke="#216AB6" fill="#216AB6" sketch:type="MSShapeGroup"></path>
            <path d="M1598,338 L1505,529 L1739,453 L1598,338 Z" id="Shape" stroke="#0F48A0" fill="#0F48A0" sketch:type="MSShapeGroup"></path>
            <path d="M1598,338 L1739,453 L1741,367 L1598,338 Z" id="Shape" stroke="#175FAF" fill="#175FAF" sketch:type="MSShapeGroup"></path>
            <path d="M1741,367 L1739,453 L1823,348 L1741,367 Z" id="Shape" stroke="#1656AA" fill="#1656AA" sketch:type="MSShapeGroup"></path>
            <path d="M1823,348 L1739,453 L1888,488 L1823,348 Z" id="Shape" stroke="#0E3D99" fill="#0E3D99" sketch:type="MSShapeGroup"></path>
            <path d="M198,496 L138,681 L375,645 L198,496 Z" id="Shape" stroke="#6F7595" fill="#6F7595" sketch:type="MSShapeGroup"></path>
            <path d="M198,496 L375,645 L378,550 L198,496 Z" id="Shape" stroke="#6A72A2" fill="#6A72A2" sketch:type="MSShapeGroup"></path>
            <path d="M445,544 L509,605 L617,462 L445,544 Z" id="Shape" stroke="#5C6BA6" fill="#5C6BA6" sketch:type="MSShapeGroup"></path>
            <path d="M617,462 L509,605 L682,633 L617,462 Z" id="Shape" stroke="#57689A" fill="#57689A" sketch:type="MSShapeGroup"></path>
            <path d="M617,462 L682,633 L797,523 L617,462 Z" id="Shape" stroke="#5066A1" fill="#5066A1" sketch:type="MSShapeGroup"></path>
            <path d="M898,523 L950,713 L1052,500 L898,523 Z" id="Shape" stroke="#39598E" fill="#39598E" sketch:type="MSShapeGroup"></path>
            <path d="M1052,500 L950,713 L1076,682 L1052,500 Z" id="Shape" stroke="#34567A" fill="#34567A" sketch:type="MSShapeGroup"></path>
            <path d="M1052,500 L1076,682 L1200,625 L1052,500 Z" id="Shape" stroke="#2C5081" fill="#2C5081" sketch:type="MSShapeGroup"></path>
            <path d="M1295,456 L1200,625 L1347,659 L1295,456 Z" id="Shape" stroke="#1B4381" fill="#1B4381" sketch:type="MSShapeGroup"></path>
            <path d="M1295,456 L1347,659 L1415,540 L1295,456 Z" id="Shape" stroke="#163E88" fill="#163E88" sketch:type="MSShapeGroup"></path>
            <path d="M1505,529 L1715,653 L1739,453 L1505,529 Z" id="Shape" stroke="#01257A" fill="#01257A" sketch:type="MSShapeGroup"></path>
            <path d="M1739,453 L1715,653 L1888,488 L1739,453 Z" id="Shape" stroke="#001A77" fill="#001A77" sketch:type="MSShapeGroup"></path>
            <path d="M1888,488 L1715,653 L1861,705 L1888,488 Z" id="Shape" stroke="#001758" fill="#001758" sketch:type="MSShapeGroup"></path>
        </g>
    </g>
</svg>