<svg version="1.1" xmlns="http://www.w3.org/2000/svg" xmlns:xlink="http://www.w3.org/1999/xlink" xmlns:sketch="http://www.bohemiancoding.com/sketch/ns">
    <g id="Page-1" stroke="none" stroke-width="1" fill="none" fill-rule="evenodd" sketch:type="MSPage">
        <g id="Group" sketch:type="MSLayerGroup" transform="translate(-122.000000, -154.000000)">
            <path d="M93,99 L104,241 L154,266 L93,99 Z" id="Shape" stroke="#F6E2F9" fill="#F6E2F9" sketch:type="MSShapeGroup"></path>
            <path d="M93,99 L154,266 L247,45 L93,99 Z" id="Shape" stroke="#F6F2F9" fill="#F6F2F9" sketch:type="MSShapeGroup"></path>
            <path d="M247,45 L154,266 L317,257 L247,45 Z" id="Shape" stroke="#F1DAF5" fill="#F1DAF5" sketch:type="MSShapeGroup"></path>
            <path d="M247,45 L317,257 L466,98 L247,45 Z" id="Shape" stroke="#ECE0EF" fill="#ECE0EF" sketch:type="MSShapeGroup"></path>
            <path d="M466,98 L317,257 L471,258 L466,98 Z" id="Shape" stroke="#E6C2E9" fill="#E6C2E9" sketch:type="MSShapeGroup"></path>
            <path d="M466,98 L471,258 L634,115 L466,98 Z" id="Shape" stroke="#E6CAE7" fill="#E6CAE7" sketch:type="MSShapeGroup"></path>
            <path d="M634,115 L471,258 L631,245 L634,115 Z" id="Shape" stroke="#E2B6E3" fill="#E2B6E3" sketch:type="MSShapeGroup"></path>
            <path d="M634,115 L631,245 L745,154 L634,115 Z" id="Shape" stroke="#E6BAE1" fill="#E6BAE1" sketch:type="MSShapeGroup"></path>
            <path d="M785,5 L745,154 L969,163 L785,5 Z" id="Shape" stroke="#EDB6DA" fill="#EDB6DA" sketch:type="MSShapeGroup"></path>
            <path d="M785,5 L969,163 L981,29 L785,5 Z" id="Shape" stroke="#EFADD4" fill="#EFADD4" sketch:type="MSShapeGroup"></path>
            <path d="M981,29 L969,163 L1098,52 L981,29 Z" id="Shape" stroke="#EF9EC8" fill="#EF9EC8" sketch:type="MSShapeGroup"></path>
            <path d="M1098,52 L969,163 L1106,192 L1098,52 Z" id="Shape" stroke="#EF96C3" fill="#EF96C3" sketch:type="MSShapeGroup"></path>
            <path d="M1098,52 L1106,192 L1220,29 L1098,52 Z" id="Shape" stroke="#EC8DB9" fill="#EC8DB9" sketch:type="MSShapeGroup"></path>
            <path d="M1220,29 L1106,192 L1198,260 L1220,29 Z" id="Shape" stroke="#E782B6" fill="#E782B6" sketch:type="MSShapeGroup"></path>
            <path d="M1220,29 L1198,260 L1394,51 L1220,29 Z" id="Shape" stroke="#DA85AC" fill="#DA85AC" sketch:type="MSShapeGroup"></path>
            <path d="M1394,51 L1198,260 L1453,195 L1394,51 Z" id="Shape" stroke="#CF76A4" fill="#CF76A4" sketch:type="MSShapeGroup"></path>
            <path d="M1394,51 L1453,195 L1503,92 L1394,51 Z" id="Shape" stroke="#C18099" fill="#C18099" sketch:type="MSShapeGroup"></path>
            <path d="M1503,92 L1453,195 L1548,152 L1503,92 Z" id="Shape" stroke="#BA7C94" fill="#BA7C94" sketch:type="MSShapeGroup"></path>
            <path d="M1744,11 L1548,152 L1650,233 L1744,11 Z" id="Shape" stroke="#A68084" fill="#A68084" sketch:type="MSShapeGroup"></path>
            <path d="M104,241 L28,345 L154,266 L104,241 Z" id="Shape" stroke="#F8BFEA" fill="#F8BFEA" sketch:type="MSShapeGroup"></path>
            <path d="M154,266 L28,345 L213,346 L154,266 Z" id="Shape" stroke="#F8A6DA" fill="#F8A6DA" sketch:type="MSShapeGroup"></path>
            <path d="M154,266 L213,346 L317,257 L154,266 Z" id="Shape" stroke="#F1AFE2" fill="#F1AFE2" sketch:type="MSShapeGroup"></path>
            <path d="M317,257 L213,346 L397,376 L317,257 Z" id="Shape" stroke="#EE8DCB" fill="#EE8DCB" sketch:type="MSShapeGroup"></path>
            <path d="M317,257 L397,376 L471,258 L317,257 Z" id="Shape" stroke="#E999D7" fill="#E999D7" sketch:type="MSShapeGroup"></path>
            <path d="M471,258 L397,376 L517,408 L471,258 Z" id="Shape" stroke="#E870B8" fill="#E870B8" sketch:type="MSShapeGroup"></path>
            <path d="M471,258 L517,408 L631,245 L471,258 Z" id="Shape" stroke="#E68BCF" fill="#E68BCF" sketch:type="MSShapeGroup"></path>
            <path d="M631,245 L517,408 L655,349 L631,245 Z" id="Shape" stroke="#E570BA" fill="#E570BA" sketch:type="MSShapeGroup"></path>
            <path d="M631,245 L655,349 L759,349 L631,245 Z" id="Shape" stroke="#E778C2" fill="#E778C2" sketch:type="MSShapeGroup"></path>
            <path d="M631,245 L759,349 L745,154 L631,245 Z" id="Shape" stroke="#E198D5" fill="#E198D5" sketch:type="MSShapeGroup"></path>
            <path d="M745,154 L759,349 L969,163 L745,154 Z" id="Shape" stroke="#E899D5" fill="#E899D5" sketch:type="MSShapeGroup"></path>
            <path d="M969,163 L759,349 L1006,313 L969,163 Z" id="Shape" stroke="#EC76C4" fill="#EC76C4" sketch:type="MSShapeGroup"></path>
            <path d="M969,163 L1006,313 L1106,192 L969,163 Z" id="Shape" stroke="#EA7DC1" fill="#EA7DC1" sketch:type="MSShapeGroup"></path>
            <path d="M1106,192 L1006,313 L1198,260 L1106,192 Z" id="Shape" stroke="#E864B2" fill="#E864B2" sketch:type="MSShapeGroup"></path>
            <path d="M1198,260 L1006,313 L1075,413 L1198,260 Z" id="Shape" stroke="#EE3A98" fill="#EE3A98" sketch:type="MSShapeGroup"></path>
            <path d="M1198,260 L1075,413 L1232,396 L1198,260 Z" id="Shape" stroke="#E81E7F" fill="#E81E7F" sketch:type="MSShapeGroup"></path>
            <path d="M1198,260 L1232,396 L1442,383 L1198,260 Z" id="Shape" stroke="#D71F78" fill="#D71F78" sketch:type="MSShapeGroup"></path>
            <path d="M1198,260 L1442,383 L1453,195 L1198,260 Z" id="Shape" stroke="#CA4891" fill="#CA4891" sketch:type="MSShapeGroup"></path>
            <path d="M1453,195 L1442,383 L1494,392 L1453,195 Z" id="Shape" stroke="#BF2C74" fill="#BF2C74" sketch:type="MSShapeGroup"></path>
            <path d="M1453,195 L1494,392 L1650,233 L1453,195 Z" id="Shape" stroke="#B24A81" fill="#B24A81" sketch:type="MSShapeGroup"></path>
            <path d="M1453,195 L1650,233 L1548,152 L1453,195 Z" id="Shape" stroke="#B26D8E" fill="#B26D8E" sketch:type="MSShapeGroup"></path>
            <path d="M1650,233 L1494,392 L1716,417 L1650,233 Z" id="Shape" stroke="#A91A55" fill="#A91A55" sketch:type="MSShapeGroup"></path>
            <path d="M28,345 L88,538 L177,510 L28,345 Z" id="Shape" stroke="#B47B89" fill="#B47B89" sketch:type="MSShapeGroup"></path>
            <path d="M28,345 L177,510 L213,346 L28,345 Z" id="Shape" stroke="#DC7AAA" fill="#DC7AAA" sketch:type="MSShapeGroup"></path>
            <path d="M213,346 L177,510 L338,523 L213,346 Z" id="Shape" stroke="#AF6B83" fill="#AF6B83" sketch:type="MSShapeGroup"></path>
            <path d="M213,346 L338,523 L397,376 L213,346 Z" id="Shape" stroke="#C76398" fill="#C76398" sketch:type="MSShapeGroup"></path>
            <path d="M397,376 L338,523 L495,502 L397,376 Z" id="Shape" stroke="#A15A77" fill="#A15A77" sketch:type="MSShapeGroup"></path>
            <path d="M397,376 L495,502 L517,408 L397,376 Z" id="Shape" stroke="#B9568A" fill="#B9568A" sketch:type="MSShapeGroup"></path>
            <path d="M517,408 L495,502 L634,553 L517,408 Z" id="Shape" stroke="#905067" fill="#905067" sketch:type="MSShapeGroup"></path>
            <path d="M517,408 L634,553 L655,349 L517,408 Z" id="Shape" stroke="#B14C80" fill="#B14C80" sketch:type="MSShapeGroup"></path>
            <path d="M655,349 L634,553 L759,349 L655,349 Z" id="Shape" stroke="#C04588" fill="#C04588" sketch:type="MSShapeGroup"></path>
            <path d="M759,349 L634,553 L822,515 L759,349 Z" id="Shape" stroke="#9E4066" fill="#9E4066" sketch:type="MSShapeGroup"></path>
            <path d="M759,349 L822,515 L916,461 L759,349 Z" id="Shape" stroke="#B63773" fill="#B63773" sketch:type="MSShapeGroup"></path>
            <path d="M759,349 L916,461 L1006,313 L759,349 Z" id="Shape" stroke="#E43D94" fill="#E43D94" sketch:type="MSShapeGroup"></path>
            <path d="M1006,313 L916,461 L1075,413 L1006,313 Z" id="Shape" stroke="#D6267C" fill="#D6267C" sketch:type="MSShapeGroup"></path>
            <path d="M1075,413 L916,461 L1093,480 L1075,413 Z" id="Shape" stroke="#B11C5A" fill="#B11C5A" sketch:type="MSShapeGroup"></path>
            <path d="M1075,413 L1093,480 L1232,396 L1075,413 Z" id="Shape" stroke="#BD0E5A" fill="#BD0E5A" sketch:type="MSShapeGroup"></path>
            <path d="M1232,396 L1093,480 L1237,547 L1232,396 Z" id="Shape" stroke="#980B3C" fill="#980B3C" sketch:type="MSShapeGroup"></path>
            <path d="M1232,396 L1237,547 L1396,527 L1232,396 Z" id="Shape" stroke="#80052B" fill="#80052B" sketch:type="MSShapeGroup"></path>
            <path d="M1232,396 L1396,527 L1442,383 L1232,396 Z" id="Shape" stroke="#9B013F" fill="#9B013F" sketch:type="MSShapeGroup"></path>
            <path d="M1442,383 L1396,527 L1494,392 L1442,383 Z" id="Shape" stroke="#8F0037" fill="#8F0037" sketch:type="MSShapeGroup"></path>
            <path d="M1494,392 L1396,527 L1505,535 L1494,392 Z" id="Shape" stroke="#6B0019" fill="#6B0019" sketch:type="MSShapeGroup"></path>
            <path d="M1494,392 L1505,535 L1706,473 L1494,392 Z" id="Shape" stroke="#690018" fill="#690018" sketch:type="MSShapeGroup"></path>
            <path d="M1494,392 L1706,473 L1716,417 L1494,392 Z" id="Shape" stroke="#790026" fill="#790026" sketch:type="MSShapeGroup"></path>
        </g>
    </g>
</svg>